# Created by FreeCAD <http://www.freecadweb.org>
v -6.250000 -1.570796 0.000000
v -1.250000 -1.570796 0.000000
v -1.250000 -1.570796 5.000000
v -6.250000 -1.570796 5.000000
v -6.250000 45.553093 0.000000
v -6.250000 45.553093 5.000000
v -1.250000 45.553093 0.000000
v -1.250000 45.553093 5.000000
v -1.250000 -1.240361 0.000000
v -1.250000 -1.240361 5.000000
v 1.000000 -0.421428 0.000000
v 1.000000 -0.421428 5.000000
v 1.000000 0.421428 0.000000
v 1.000000 0.421428 5.000000
v -1.250000 1.240361 0.000000
v -1.250000 1.240361 5.000000
v -1.250000 1.901232 0.000000
v -1.250000 1.901232 5.000000
v 1.000000 2.720165 0.000000
v 1.000000 2.720165 5.000000
v 1.000000 3.563020 0.000000
v 1.000000 3.563020 5.000000
v -1.250000 4.381954 0.000000
v -1.250000 4.381954 5.000000
v -1.250000 5.042824 0.000000
v -1.250000 5.042824 5.000000
v 1.000000 5.861757 0.000000
v 1.000000 5.861757 5.000000
v 1.000000 6.704613 0.000000
v 1.000000 6.704613 5.000000
v -1.250000 7.523546 0.000000
v -1.250000 7.523546 5.000000
v -1.250000 8.184417 0.000000
v -1.250000 8.184417 5.000000
v 1.000000 9.003350 0.000000
v 1.000000 9.003350 5.000000
v 1.000000 9.846206 0.000000
v 1.000000 9.846206 5.000000
v -1.250000 10.665139 0.000000
v -1.250000 10.665139 5.000000
v -1.250000 11.326010 0.000000
v -1.250000 11.326010 5.000000
v 1.000000 12.144942 0.000000
v 1.000000 12.144942 5.000000
v 1.000000 12.987799 0.000000
v 1.000000 12.987799 5.000000
v -1.250000 13.806731 0.000000
v -1.250000 13.806731 5.000000
v -1.250000 14.467603 0.000000
v -1.250000 14.467603 5.000000
v 1.000000 15.286535 0.000000
v 1.000000 15.286535 5.000000
v 1.000000 16.129391 0.000000
v 1.000000 16.129391 5.000000
v -1.250000 16.948324 0.000000
v -1.250000 16.948324 5.000000
v -1.250000 17.609196 0.000000
v -1.250000 17.609196 5.000000
v 1.000000 18.428127 0.000000
v 1.000000 18.428127 5.000000
v 1.000000 19.270985 0.000000
v 1.000000 19.270985 5.000000
v -1.250000 20.089916 0.000000
v -1.250000 20.089916 5.000000
v -1.250000 20.750788 5.000000
v -1.250000 20.750788 0.000000
v 1.000000 21.569721 0.000000
v 1.000000 21.569721 5.000000
v 1.000000 22.412577 0.000000
v 1.000000 22.412577 5.000000
v -1.250000 23.231510 0.000000
v -1.250000 23.231510 5.000000
v -1.250000 23.892380 5.000000
v -1.250000 23.892380 0.000000
v 1.000000 24.711313 0.000000
v 1.000000 24.711313 5.000000
v 1.000000 25.554169 0.000000
v 1.000000 25.554169 5.000000
v -1.250000 26.373102 0.000000
v -1.250000 26.373102 5.000000
v -1.250000 27.033974 5.000000
v -1.250000 27.033974 0.000000
v 1.000000 27.852905 0.000000
v 1.000000 27.852905 5.000000
v 1.000000 28.695763 0.000000
v 1.000000 28.695763 5.000000
v -1.250000 29.514694 0.000000
v -1.250000 29.514694 5.000000
v -1.250000 30.175566 5.000000
v -1.250000 30.175566 0.000000
v 1.000000 30.994499 0.000000
v 1.000000 30.994499 5.000000
v 1.000000 31.837355 0.000000
v 1.000000 31.837355 5.000000
v -1.250000 32.656288 0.000000
v -1.250000 32.656288 5.000000
v -1.250000 33.317158 5.000000
v -1.250000 33.317158 0.000000
v 1.000000 34.136093 0.000000
v 1.000000 34.136093 5.000000
v 1.000000 34.978947 0.000000
v 1.000000 34.978947 5.000000
v -1.250000 35.797878 0.000000
v -1.250000 35.797878 5.000000
v -1.250000 36.458752 0.000000
v -1.250000 36.458752 5.000000
v 1.000000 37.277683 0.000000
v 1.000000 37.277683 5.000000
v 1.000000 38.120541 0.000000
v 1.000000 38.120541 5.000000
v -1.250000 38.939472 0.000000
v -1.250000 38.939472 5.000000
v -1.250000 39.600342 5.000000
v -1.250000 39.600342 0.000000
v 1.000000 40.419277 0.000000
v 1.000000 40.419277 5.000000
v 1.000000 41.262131 0.000000
v 1.000000 41.262131 5.000000
v -1.250000 42.081066 0.000000
v -1.250000 42.081066 5.000000
v -1.250000 42.741936 0.000000
v -1.250000 42.741936 5.000000
v 1.000000 43.560871 0.000000
v 1.000000 43.560871 5.000000
v 1.000000 44.403725 0.000000
v 1.000000 44.403725 5.000000
v -1.250000 45.222656 0.000000
v -1.250000 45.222656 5.000000
vn 0.000000 -1.000000 0.000000
vn 0.000000 -1.000000 0.000000
vn -1.000000 0.000000 0.000000
vn -1.000000 0.000000 0.000000
vn 0.000000 1.000000 0.000000
vn 0.000000 1.000000 -0.000000
vn 1.000000 0.000000 0.000000
vn 1.000000 -0.000000 0.000000
vn 0.342020 -0.939693 0.000000
vn 0.342020 -0.939693 0.000000
vn 1.000000 0.000000 0.000000
vn 1.000000 -0.000000 0.000000
vn 0.342020 0.939693 -0.000000
vn 0.342020 0.939693 0.000000
vn 1.000000 0.000000 0.000000
vn 1.000000 -0.000000 0.000000
vn 0.342020 -0.939693 0.000000
vn 0.342020 -0.939693 0.000000
vn 1.000000 0.000000 0.000000
vn 1.000000 -0.000000 0.000000
vn 0.342020 0.939693 -0.000000
vn 0.342020 0.939693 0.000000
vn 1.000000 0.000000 0.000000
vn 1.000000 -0.000000 0.000000
vn 0.342020 -0.939693 0.000000
vn 0.342020 -0.939693 0.000000
vn 1.000000 0.000000 0.000000
vn 1.000000 -0.000000 0.000000
vn 0.342020 0.939693 -0.000000
vn 0.342020 0.939693 0.000000
vn 1.000000 0.000000 0.000000
vn 1.000000 -0.000000 0.000000
vn 0.342020 -0.939693 0.000000
vn 0.342020 -0.939693 0.000000
vn 1.000000 0.000000 0.000000
vn 1.000000 -0.000000 0.000000
vn 0.342020 0.939693 -0.000000
vn 0.342020 0.939693 0.000000
vn 1.000000 0.000000 0.000000
vn 1.000000 -0.000000 0.000000
vn 0.342020 -0.939693 0.000000
vn 0.342020 -0.939693 0.000000
vn 1.000000 0.000000 0.000000
vn 1.000000 -0.000000 0.000000
vn 0.342020 0.939693 -0.000000
vn 0.342020 0.939693 0.000000
vn 1.000000 0.000000 0.000000
vn 1.000000 -0.000000 0.000000
vn 0.342020 -0.939693 0.000000
vn 0.342020 -0.939693 0.000000
vn 1.000000 0.000000 0.000000
vn 1.000000 -0.000000 0.000000
vn 0.342020 0.939693 -0.000000
vn 0.342020 0.939693 0.000000
vn 1.000000 0.000000 0.000000
vn 1.000000 -0.000000 0.000000
vn 0.342020 -0.939693 0.000000
vn 0.342020 -0.939693 0.000000
vn 1.000000 0.000000 0.000000
vn 1.000000 -0.000000 0.000000
vn 0.342020 0.939693 -0.000000
vn 0.342020 0.939693 0.000000
vn 1.000000 -0.000000 0.000000
vn 1.000000 0.000000 0.000000
vn 0.342020 -0.939693 0.000000
vn 0.342020 -0.939693 0.000000
vn 1.000000 0.000000 0.000000
vn 1.000000 -0.000000 0.000000
vn 0.342020 0.939693 -0.000000
vn 0.342020 0.939693 0.000000
vn 1.000000 -0.000000 0.000000
vn 1.000000 0.000000 0.000000
vn 0.342020 -0.939693 0.000000
vn 0.342020 -0.939693 0.000000
vn 1.000000 0.000000 0.000000
vn 1.000000 -0.000000 0.000000
vn 0.342020 0.939693 -0.000000
vn 0.342020 0.939693 0.000000
vn 1.000000 -0.000000 0.000000
vn 1.000000 0.000000 0.000000
vn 0.342020 -0.939693 0.000000
vn 0.342020 -0.939693 0.000000
vn 1.000000 0.000000 0.000000
vn 1.000000 -0.000000 0.000000
vn 0.342020 0.939693 -0.000000
vn 0.342020 0.939693 0.000000
vn 1.000000 -0.000000 0.000000
vn 1.000000 0.000000 0.000000
vn 0.342020 -0.939693 0.000000
vn 0.342020 -0.939693 0.000000
vn 1.000000 0.000000 0.000000
vn 1.000000 -0.000000 0.000000
vn 0.342020 0.939693 -0.000000
vn 0.342020 0.939693 0.000000
vn 1.000000 -0.000000 0.000000
vn 1.000000 0.000000 0.000000
vn 0.342021 -0.939692 0.000000
vn 0.342021 -0.939692 0.000000
vn 1.000000 0.000000 0.000000
vn 1.000000 -0.000000 0.000000
vn 0.342020 0.939693 -0.000000
vn 0.342020 0.939693 0.000000
vn 1.000000 0.000000 0.000000
vn 1.000000 -0.000000 0.000000
vn 0.342020 -0.939693 0.000000
vn 0.342020 -0.939693 0.000000
vn 1.000000 0.000000 0.000000
vn 1.000000 -0.000000 0.000000
vn 0.342020 0.939693 -0.000000
vn 0.342020 0.939693 0.000000
vn 1.000000 -0.000000 0.000000
vn 1.000000 0.000000 0.000000
vn 0.342021 -0.939692 0.000000
vn 0.342021 -0.939692 0.000000
vn 1.000000 0.000000 0.000000
vn 1.000000 -0.000000 0.000000
vn 0.342021 0.939692 -0.000000
vn 0.342021 0.939692 0.000000
vn 1.000000 0.000000 0.000000
vn 1.000000 -0.000000 0.000000
vn 0.342021 -0.939692 0.000000
vn 0.342021 -0.939692 0.000000
vn 1.000000 0.000000 0.000000
vn 1.000000 -0.000000 0.000000
vn 0.342020 0.939693 -0.000000
vn 0.342020 0.939693 0.000000
vn 1.000000 0.000000 0.000000
vn 1.000000 -0.000000 0.000000
vn 0.000000 0.000000 -1.000000
vn 0.000000 0.000000 -1.000000
vn 0.000000 0.000000 -1.000000
vn 0.000000 0.000000 -1.000000
vn 0.000000 0.000000 -1.000000
vn 0.000000 0.000000 -1.000000
vn 0.000000 0.000000 -1.000000
vn 0.000000 -0.000000 -1.000000
vn 0.000000 -0.000000 -1.000000
vn 0.000000 0.000000 -1.000000
vn 0.000000 0.000000 -1.000000
vn 0.000000 -0.000000 -1.000000
vn 0.000000 0.000000 -1.000000
vn 0.000000 -0.000000 -1.000000
vn 0.000000 0.000000 -1.000000
vn 0.000000 -0.000000 -1.000000
vn 0.000000 -0.000000 -1.000000
vn 0.000000 -0.000000 -1.000000
vn 0.000000 0.000000 -1.000000
vn 0.000000 0.000000 -1.000000
vn 0.000000 -0.000000 -1.000000
vn 0.000000 -0.000000 -1.000000
vn 0.000000 0.000000 -1.000000
vn 0.000000 0.000000 -1.000000
vn 0.000000 0.000000 -1.000000
vn 0.000000 0.000000 -1.000000
vn 0.000000 0.000000 -1.000000
vn 0.000000 0.000000 -1.000000
vn 0.000000 0.000000 -1.000000
vn 0.000000 0.000000 -1.000000
vn 0.000000 0.000000 -1.000000
vn 0.000000 0.000000 -1.000000
vn 0.000000 0.000000 -1.000000
vn 0.000000 0.000000 -1.000000
vn 0.000000 0.000000 -1.000000
vn 0.000000 0.000000 -1.000000
vn 0.000000 0.000000 -1.000000
vn 0.000000 0.000000 -1.000000
vn 0.000000 0.000000 -1.000000
vn 0.000000 0.000000 -1.000000
vn 0.000000 0.000000 -1.000000
vn 0.000000 0.000000 -1.000000
vn 0.000000 0.000000 -1.000000
vn 0.000000 0.000000 -1.000000
vn 0.000000 0.000000 -1.000000
vn 0.000000 0.000000 -1.000000
vn 0.000000 0.000000 -1.000000
vn 0.000000 0.000000 -1.000000
vn 0.000000 0.000000 -1.000000
vn 0.000000 0.000000 -1.000000
vn 0.000000 0.000000 -1.000000
vn 0.000000 0.000000 -1.000000
vn 0.000000 0.000000 -1.000000
vn 0.000000 0.000000 -1.000000
vn 0.000000 0.000000 -1.000000
vn 0.000000 0.000000 -1.000000
vn 0.000000 0.000000 -1.000000
vn 0.000000 0.000000 -1.000000
vn 0.000000 0.000000 -1.000000
vn 0.000000 0.000000 -1.000000
vn 0.000000 0.000000 -1.000000
vn 0.000000 0.000000 -1.000000
vn 0.000000 0.000000 1.000000
vn 0.000000 0.000000 1.000000
vn 0.000000 0.000000 1.000000
vn 0.000000 0.000000 1.000000
vn 0.000000 0.000000 1.000000
vn 0.000000 0.000000 1.000000
vn 0.000000 0.000000 1.000000
vn 0.000000 -0.000000 1.000000
vn 0.000000 -0.000000 1.000000
vn 0.000000 0.000000 1.000000
vn 0.000000 0.000000 1.000000
vn 0.000000 -0.000000 1.000000
vn 0.000000 0.000000 1.000000
vn 0.000000 -0.000000 1.000000
vn 0.000000 0.000000 1.000000
vn 0.000000 -0.000000 1.000000
vn 0.000000 -0.000000 1.000000
vn 0.000000 -0.000000 1.000000
vn 0.000000 0.000000 1.000000
vn 0.000000 0.000000 1.000000
vn 0.000000 -0.000000 1.000000
vn 0.000000 -0.000000 1.000000
vn 0.000000 0.000000 1.000000
vn 0.000000 0.000000 1.000000
vn 0.000000 0.000000 1.000000
vn 0.000000 0.000000 1.000000
vn 0.000000 0.000000 1.000000
vn 0.000000 0.000000 1.000000
vn 0.000000 0.000000 1.000000
vn 0.000000 0.000000 1.000000
vn 0.000000 0.000000 1.000000
vn 0.000000 0.000000 1.000000
vn 0.000000 0.000000 1.000000
vn 0.000000 0.000000 1.000000
vn 0.000000 0.000000 1.000000
vn 0.000000 0.000000 1.000000
vn 0.000000 0.000000 1.000000
vn 0.000000 0.000000 1.000000
vn 0.000000 0.000000 1.000000
vn 0.000000 0.000000 1.000000
vn 0.000000 0.000000 1.000000
vn 0.000000 0.000000 1.000000
vn 0.000000 0.000000 1.000000
vn 0.000000 0.000000 1.000000
vn 0.000000 0.000000 1.000000
vn 0.000000 0.000000 1.000000
vn 0.000000 0.000000 1.000000
vn 0.000000 0.000000 1.000000
vn 0.000000 0.000000 1.000000
vn 0.000000 0.000000 1.000000
vn 0.000000 0.000000 1.000000
vn 0.000000 0.000000 1.000000
vn 0.000000 0.000000 1.000000
vn 0.000000 0.000000 1.000000
vn 0.000000 0.000000 1.000000
vn 0.000000 0.000000 1.000000
vn 0.000000 0.000000 1.000000
vn 0.000000 0.000000 1.000000
vn 0.000000 0.000000 1.000000
vn 0.000000 0.000000 1.000000
vn 0.000000 0.000000 1.000000
vn 0.000000 0.000000 1.000000
f 1//1 2//1 3//1
f 1//2 3//2 4//2
f 5//3 1//3 4//3
f 5//4 4//4 6//4
f 7//5 5//5 6//5
f 7//6 6//6 8//6
f 2//7 9//7 3//7
f 3//8 9//8 10//8
f 9//9 11//9 10//9
f 10//10 11//10 12//10
f 11//11 13//11 12//11
f 12//12 13//12 14//12
f 13//13 15//13 14//13
f 14//14 15//14 16//14
f 15//15 17//15 16//15
f 16//16 17//16 18//16
f 17//17 19//17 18//17
f 18//18 19//18 20//18
f 19//19 21//19 20//19
f 20//20 21//20 22//20
f 21//21 23//21 22//21
f 22//22 23//22 24//22
f 23//23 25//23 24//23
f 24//24 25//24 26//24
f 25//25 27//25 26//25
f 26//26 27//26 28//26
f 27//27 29//27 28//27
f 28//28 29//28 30//28
f 29//29 31//29 30//29
f 30//30 31//30 32//30
f 31//31 33//31 32//31
f 32//32 33//32 34//32
f 33//33 35//33 34//33
f 34//34 35//34 36//34
f 35//35 37//35 36//35
f 36//36 37//36 38//36
f 37//37 39//37 38//37
f 38//38 39//38 40//38
f 39//39 41//39 40//39
f 40//40 41//40 42//40
f 41//41 43//41 42//41
f 42//42 43//42 44//42
f 43//43 45//43 44//43
f 44//44 45//44 46//44
f 45//45 47//45 46//45
f 46//46 47//46 48//46
f 47//47 49//47 48//47
f 48//48 49//48 50//48
f 49//49 51//49 50//49
f 50//50 51//50 52//50
f 51//51 53//51 52//51
f 52//52 53//52 54//52
f 53//53 55//53 54//53
f 54//54 55//54 56//54
f 55//55 57//55 56//55
f 56//56 57//56 58//56
f 57//57 59//57 58//57
f 58//58 59//58 60//58
f 59//59 61//59 60//59
f 60//60 61//60 62//60
f 61//61 63//61 62//61
f 62//62 63//62 64//62
f 64//63 63//63 65//63
f 63//64 66//64 65//64
f 66//65 67//65 65//65
f 65//66 67//66 68//66
f 67//67 69//67 68//67
f 68//68 69//68 70//68
f 69//69 71//69 70//69
f 70//70 71//70 72//70
f 72//71 71//71 73//71
f 71//72 74//72 73//72
f 74//73 75//73 73//73
f 73//74 75//74 76//74
f 75//75 77//75 76//75
f 76//76 77//76 78//76
f 77//77 79//77 78//77
f 78//78 79//78 80//78
f 80//79 79//79 81//79
f 79//80 82//80 81//80
f 82//81 83//81 81//81
f 81//82 83//82 84//82
f 83//83 85//83 84//83
f 84//84 85//84 86//84
f 85//85 87//85 86//85
f 86//86 87//86 88//86
f 88//87 87//87 89//87
f 87//88 90//88 89//88
f 90//89 91//89 89//89
f 89//90 91//90 92//90
f 91//91 93//91 92//91
f 92//92 93//92 94//92
f 93//93 95//93 94//93
f 94//94 95//94 96//94
f 96//95 95//95 97//95
f 95//96 98//96 97//96
f 98//97 99//97 97//97
f 97//98 99//98 100//98
f 99//99 101//99 100//99
f 100//100 101//100 102//100
f 101//101 103//101 102//101
f 102//102 103//102 104//102
f 103//103 105//103 104//103
f 104//104 105//104 106//104
f 105//105 107//105 106//105
f 106//106 107//106 108//106
f 107//107 109//107 108//107
f 108//108 109//108 110//108
f 109//109 111//109 110//109
f 110//110 111//110 112//110
f 112//111 111//111 113//111
f 111//112 114//112 113//112
f 114//113 115//113 113//113
f 113//114 115//114 116//114
f 115//115 117//115 116//115
f 116//116 117//116 118//116
f 117//117 119//117 118//117
f 118//118 119//118 120//118
f 119//119 121//119 120//119
f 120//120 121//120 122//120
f 121//121 123//121 122//121
f 122//122 123//122 124//122
f 123//123 125//123 124//123
f 124//124 125//124 126//124
f 125//125 127//125 126//125
f 126//126 127//126 128//126
f 127//127 7//127 128//127
f 128//128 7//128 8//128
f 15//129 13//129 11//129
f 15//130 11//130 9//130
f 1//131 17//131 15//131
f 1//132 9//132 2//132
f 1//133 15//133 9//133
f 23//134 21//134 19//134
f 23//135 19//135 17//135
f 23//136 17//136 1//136
f 25//137 23//137 1//137
f 31//138 29//138 27//138
f 31//139 27//139 25//139
f 31//140 25//140 1//140
f 33//141 37//141 35//141
f 33//142 31//142 1//142
f 39//143 37//143 33//143
f 39//144 33//144 1//144
f 41//145 39//145 1//145
f 47//146 41//146 1//146
f 47//147 45//147 43//147
f 47//148 43//148 41//148
f 49//149 47//149 1//149
f 55//150 49//150 1//150
f 55//151 53//151 51//151
f 55//152 51//152 49//152
f 57//153 61//153 59//153
f 63//154 61//154 57//154
f 66//155 69//155 67//155
f 71//156 69//156 66//156
f 74//157 77//157 75//157
f 79//158 77//158 74//158
f 87//159 85//159 83//159
f 87//160 83//160 82//160
f 95//161 93//161 91//161
f 95//162 91//162 90//162
f 103//163 101//163 99//163
f 103//164 99//164 98//164
f 111//165 109//165 107//165
f 111//166 107//166 105//166
f 114//167 117//167 115//167
f 119//168 117//168 114//168
f 127//169 125//169 123//169
f 127//170 123//170 121//170
f 5//171 7//171 127//171
f 5//172 121//172 119//172
f 5//173 114//173 111//173
f 5//174 105//174 103//174
f 5//175 98//175 95//175
f 5//176 90//176 87//176
f 5//177 82//177 79//177
f 5//178 87//178 82//178
f 5//179 95//179 90//179
f 5//180 103//180 98//180
f 5//181 111//181 105//181
f 5//182 119//182 114//182
f 5//183 127//183 121//183
f 1//184 5//184 74//184
f 74//185 5//185 79//185
f 1//186 74//186 71//186
f 1//187 71//187 66//187
f 1//188 66//188 63//188
f 1//189 63//189 57//189
f 1//190 57//190 55//190
f 14//191 16//191 12//191
f 12//192 16//192 10//192
f 18//193 4//193 16//193
f 10//194 4//194 3//194
f 16//195 4//195 10//195
f 22//196 24//196 20//196
f 20//197 24//197 18//197
f 18//198 24//198 4//198
f 24//199 26//199 4//199
f 30//200 32//200 28//200
f 28//201 32//201 26//201
f 26//202 32//202 4//202
f 38//203 34//203 36//203
f 32//204 34//204 4//204
f 38//205 40//205 34//205
f 34//206 40//206 4//206
f 40//207 42//207 4//207
f 42//208 48//208 4//208
f 46//209 48//209 44//209
f 44//210 48//210 42//210
f 48//211 50//211 4//211
f 50//212 56//212 4//212
f 54//213 56//213 52//213
f 52//214 56//214 50//214
f 62//215 58//215 60//215
f 62//216 64//216 58//216
f 70//217 65//217 68//217
f 70//218 72//218 65//218
f 78//219 73//219 76//219
f 78//220 80//220 73//220
f 86//221 88//221 84//221
f 84//222 88//222 81//222
f 94//223 96//223 92//223
f 92//224 96//224 89//224
f 102//225 104//225 100//225
f 100//226 104//226 97//226
f 110//227 112//227 108//227
f 108//228 112//228 106//228
f 118//229 113//229 116//229
f 118//230 120//230 113//230
f 126//231 128//231 124//231
f 124//232 128//232 122//232
f 8//233 6//233 128//233
f 122//234 6//234 120//234
f 113//235 6//235 112//235
f 106//236 6//236 104//236
f 97//237 6//237 96//237
f 89//238 6//238 88//238
f 81//239 6//239 80//239
f 88//240 6//240 81//240
f 96//241 6//241 89//241
f 104//242 6//242 97//242
f 112//243 6//243 106//243
f 120//244 6//244 113//244
f 128//245 6//245 122//245
f 6//246 4//246 73//246
f 6//247 73//247 80//247
f 73//248 4//248 72//248
f 72//249 4//249 65//249
f 65//250 4//250 64//250
f 64//251 4//251 58//251
f 58//252 4//252 56//252
